# xmcd CD database file
#
# Track frame offsets:
#	150
#	26960
#	47012
#
# Disc length: 940 seconds
#
# Revision: 0
# Processed by: cddbd v1.5.1PL0 Copyright (c) Steve Scherf et al.
# Submitted via: CDex 1.51
#
DISCID=2103aa03
DTITLE=清春 - LAST SONG〜最後の詞〜
DYEAR=1900
DGENRE=JPop
TTITLE0=LAST SONG〜最後の詞〜
TTITLE1=BOUNCY
TTITLE2=SITAR
EXTD=
EXTT0=
EXTT1=
EXTT2=
PLAYORDER=
